<svg width="61" height="25" viewBox="0 0 61 25" fill="none" xmlns="http://www.w3.org/2000/svg">
<path d="M0.0267334 20.8225C0.791997 19.949 1.14243 18.8524 1.64861 17.8448C4.02909 13.106 6.36986 8.34806 8.7322 3.60051C8.84119 3.43037 8.96881 3.27249 9.11277 3.1297C9.71383 5.4552 11.1808 7.43368 11.8531 9.73118C11.2585 11.4878 10.2262 13.042 9.45342 14.7171C9.29579 15.0589 9.11419 15.39 8.94659 15.7273C8.24817 17.0809 7.55432 18.4368 6.86503 19.7951C6.67773 20.1661 6.50765 20.5475 6.15654 20.8072C5.82459 21.4077 5.47321 21.9987 5.16495 22.6106C4.60713 23.718 3.7422 24.2918 2.46497 24.1555C1.29861 24.0309 0.557518 23.3918 0.216683 22.2905C0.190563 22.2061 0.0917577 22.1434 0.0267376 22.0707L0.0267334 20.8225Z" fill="#9DE1AA"/>
<path d="M22.4606 0.0201721C22.4199 0.589199 22.0229 0.649074 21.5613 0.64663C21.1169 0.644285 20.8007 0.51262 20.7675 0.0201721H22.4606Z" fill="#F1F1F1"/>
<path d="M11.6775 9.76576C11.0242 8.36906 10.4045 6.9558 9.70458 5.58204C9.30411 4.79602 9.02377 4.01439 9.11291 3.12966C9.20688 2.6012 9.47041 2.11622 9.8649 1.74574C10.2594 1.37527 10.7641 1.13876 11.3051 1.07085C12.5937 0.908954 13.6606 1.47547 14.2976 2.73973C16.1884 6.49273 18.0662 10.252 19.9312 14.0175C21.0092 16.1928 22.0555 18.3833 23.1161 20.5669C23.4224 20.8856 23.6223 21.2888 23.689 21.7224C23.7168 21.8304 23.712 21.944 23.6753 22.0494C23.6387 22.1548 23.5716 22.2474 23.4824 22.316C23.1541 22.3829 23.1067 22.6935 22.9493 22.909C21.6473 24.6923 19.3569 24.5893 18.225 22.6976C17.8554 22.0798 17.6691 21.3644 17.1827 20.809C16.122 19.5724 15.6487 18.0238 14.8913 16.6262C14.727 16.323 14.6267 15.9856 14.4631 15.6784C13.7296 14.1412 12.9249 12.6388 12.1523 11.1207C11.9141 10.7001 11.7534 10.2414 11.6775 9.76576Z" fill="#71AFBD"/>
<path d="M43.8674 3.13891C44.0033 2.99028 44.1264 2.83075 44.2353 2.66197C44.872 1.4792 46.0087 0.882521 47.1548 1.14416C47.7791 1.27375 48.3379 1.61336 48.735 2.10453C49.1322 2.59569 49.3428 3.20768 49.3306 3.83512C49.3612 5.59584 49.3385 7.35747 49.3389 9.11871C49.3396 12.3304 49.3404 15.542 49.3412 18.7537C48.899 19.1392 48.3546 19.0038 47.8459 19.0269C46.6514 19.0812 45.4796 19.1633 44.6142 20.1521C44.4318 20.3606 44.1584 20.6595 43.8692 20.2164C43.6954 19.746 43.7538 19.257 43.7532 18.7757C43.7478 14.4863 43.7462 10.1968 43.7484 5.90734C43.7481 5.42481 43.7908 4.93694 43.6237 4.46729C43.5521 3.99768 43.45 3.52164 43.8674 3.13891Z" fill="#9DE1AA"/>
<path d="M44.0827 20.4507C44.7944 19.1893 45.9462 18.7633 47.3398 18.7773C48.0068 18.784 48.674 18.7624 49.3411 18.7537C52.1545 18.7714 54.9681 18.774 57.7812 18.8114C60.1425 18.8428 61.4746 20.8732 60.3969 22.7661C59.8644 23.7015 59.0009 24.1023 57.951 24.109C54.151 24.1335 50.3509 24.1453 46.5507 24.1447C45.239 24.1431 44.502 23.5093 44.0193 22.0811C43.7738 21.7815 43.7633 21.4292 43.7819 21.0695C43.7785 20.9502 43.8039 20.8319 43.8562 20.7243C43.9086 20.6167 43.9862 20.5229 44.0827 20.4507Z" fill="#E88832"/>
<path d="M43.8674 3.13891L43.8713 4.39021C43.9055 4.45657 43.9258 4.52899 43.931 4.60318C43.9362 4.67738 43.9263 4.75186 43.9018 4.82222C43.8056 5.26276 43.5879 5.66874 43.2727 5.99572C41.9327 7.3536 40.6855 8.79282 39.4168 10.2136C39.1684 10.4918 38.9234 10.8053 38.5087 10.8776C37.4723 11.9946 36.484 13.1595 35.388 14.2168C33.8767 15.6749 31.4849 14.9916 30.8988 12.9902C30.7506 12.7718 30.6621 12.5196 30.6416 12.2578C30.6211 11.996 30.6693 11.7335 30.7816 11.4953C31.3427 10.1908 32.2927 9.0843 33.5062 8.32172C35.3237 6.32412 37.1664 4.348 38.9513 2.32266C40.6096 0.440985 42.9366 0.806331 43.8674 3.13891Z" fill="#E88832"/>
<path d="M38.5087 10.8776C39.8921 9.33407 41.2614 7.77791 42.6677 6.25471C43.087 5.79962 43.4677 5.31157 43.8061 4.79544C44.0614 5.13809 43.9312 5.5307 43.9319 5.89706C43.9419 10.8959 43.9441 15.8947 43.9387 20.8934C43.9056 21.2878 44.0159 21.6921 43.8575 22.0786C43.2858 23.7463 42.231 24.4131 40.5928 24.1426C39.3878 23.9437 38.5445 22.7785 38.538 21.2686C38.5229 17.805 38.5131 14.3413 38.5087 10.8776Z" fill="#71AFBD"/>
<path d="M23.4823 22.316L23.4875 21.6332C23.2654 20.9887 23.4231 20.3296 23.4217 19.6786C23.4113 14.8682 23.4092 10.0588 23.4156 5.25047C23.5142 4.26277 23.9354 4.9295 24.1279 5.15859C25.0826 6.29479 26.0956 7.3821 27.0404 8.52507C27.5025 9.08407 28.063 9.56035 28.4594 10.1707C28.6387 10.4469 28.9673 10.6699 28.8357 11.0737C28.8208 14.4572 28.8119 17.8407 28.7887 21.2241C28.7749 23.2471 27.6273 24.3154 25.6214 24.1544C24.4696 24.0619 23.8082 23.3643 23.4823 22.316Z" fill="#00ADA8"/>
<path d="M28.8358 11.0737C27.0642 8.97889 25.2927 6.88408 23.5211 4.78927C23.362 4.24237 23.355 3.66351 23.5007 3.11302C23.62 2.05805 24.4912 1.7014 25.2769 1.26535C25.7574 1.12026 26.2703 1.11442 26.7541 1.24853C27.0213 1.27372 27.2807 1.35132 27.5169 1.47676C27.7532 1.60219 27.9614 1.77292 28.1295 1.97885C29.7876 4.20435 31.8243 6.11759 33.506 8.3218C33.0131 8.89512 32.5555 9.50319 32.0187 10.0339C31.1794 10.8638 30.7435 11.8103 30.8987 12.9897C29.9008 12.6741 29.624 11.608 28.8358 11.0737Z" fill="#9DE1AA"/>
<path d="M14.5847 15.5556C15.5412 17.2621 16.4083 19.0155 17.1826 20.8091C13.5073 20.8084 9.83198 20.8078 6.15656 20.8072C6.91761 19.0039 7.83674 17.2765 8.76629 15.5541C10.683 15.1401 12.6683 15.1406 14.5847 15.5556Z" fill="#E88832"/>
<path d="M23.5007 3.11304C23.5075 3.6719 23.5143 4.23071 23.5211 4.78946C23.5101 10.4041 23.499 16.0188 23.4878 21.6335C23.2604 21.3215 23.1312 20.9507 23.116 20.5671C23.4563 20.2532 23.2937 19.8468 23.2945 19.4867C23.306 14.4278 23.299 9.36888 23.3066 4.30999C23.3072 3.90676 23.1857 3.47204 23.5007 3.11304Z" fill="#8CBFCA"/>
<path d="M26.7541 1.24853C26.2615 1.25416 25.7691 1.25977 25.2767 1.26538C25.7652 0.910186 26.2583 0.965474 26.7541 1.24853Z" fill="#64C3C3"/>
<path d="M43.8575 22.0786L43.8836 21.0306L44.0037 21.031C44.0089 21.381 44.0141 21.731 44.0193 22.081L43.9385 22.0749L43.8575 22.0786Z" fill="#D9C0D1"/>
<path d="M14.5848 15.5556C12.6452 15.5551 10.7057 15.5546 8.76624 15.5541C9.73663 13.6248 10.707 11.6954 11.6774 9.76599C12.7716 11.6326 13.7427 13.5665 14.5848 15.5556Z" fill="#FEFDFC"/>
<path d="M44.0037 21.031L43.9436 21.0306L43.8835 21.0306C43.8678 16.446 43.8517 11.8614 43.8353 7.27674C43.8321 6.44957 43.8163 5.62244 43.8062 4.79537C43.8279 4.6604 43.8496 4.52536 43.8714 4.39026C44.1986 4.70941 44.0382 5.11338 44.0399 5.47448C44.0633 10.4663 44.0776 15.4583 44.0827 20.4504C44.0564 20.6441 44.03 20.8376 44.0037 21.031Z" fill="#CBC1D5"/>
</svg>
