<svg width="25" height="25" viewBox="0 0 25 25" fill="none" xmlns="http://www.w3.org/2000/svg">
<path d="M3.50005 17.5001C3.5 17.4355 3.5 17.3689 3.5 17.3002V7.7002C3.5 6.58009 3.5 6.01962 3.71799 5.5918C3.90973 5.21547 4.21547 4.90973 4.5918 4.71799C5.01962 4.5 5.58009 4.5 6.7002 4.5H18.3002C19.4203 4.5 19.9801 4.5 20.4079 4.71799C20.7842 4.90973 21.0905 5.21547 21.2822 5.5918C21.5 6.0192 21.5 6.57899 21.5 7.69691V17.3031C21.5 17.7881 21.5 18.1679 21.4822 18.4774M3.50005 17.5001C3.50082 18.4884 3.51337 19.0058 3.71799 19.4074C3.90973 19.7837 4.21547 20.0905 4.5918 20.2822C5.0192 20.5 5.57899 20.5 6.69691 20.5H18.3036C19.4215 20.5 19.9805 20.5 20.4079 20.2822C20.7842 20.0905 21.0905 19.7837 21.2822 19.4074C21.4055 19.1654 21.459 18.8813 21.4822 18.4774M3.50005 17.5001L8.26798 11.9375L8.26939 11.936C8.69227 11.4426 8.90406 11.1955 9.15527 11.1064C9.37594 11.0282 9.61686 11.03 9.83643 11.1113C10.0866 11.204 10.2951 11.4539 10.7119 11.9541L13.3831 15.1595C13.769 15.6226 13.963 15.8554 14.1986 15.9489C14.4065 16.0313 14.6357 16.0406 14.8501 15.9773C15.0942 15.9053 15.3091 15.6904 15.7388 15.2607L16.2358 14.7637C16.6733 14.3262 16.8921 14.1076 17.1397 14.0361C17.3571 13.9734 17.5896 13.9869 17.7988 14.0732C18.037 14.1716 18.2302 14.4124 18.6167 14.8955L21.4822 18.4774M21.4822 18.4774L21.5 18.4996M15.5 10.5C14.9477 10.5 14.5 10.0523 14.5 9.5C14.5 8.94772 14.9477 8.5 15.5 8.5C16.0523 8.5 16.5 8.94772 16.5 9.5C16.5 10.0523 16.0523 10.5 15.5 10.5Z" stroke="#7F00DB" stroke-width="2" stroke-linecap="round" stroke-linejoin="round"/>
</svg>
