<svg width="88" height="34" viewBox="0 0 88 34" fill="none" xmlns="http://www.w3.org/2000/svg">
<path d="M28.8922 16.9037V15.668L31.6395 12.874C32.0413 12.4763 32.3524 12.1496 32.573 11.8939C32.7935 11.6342 32.9472 11.4089 33.0339 11.2182C33.1205 11.0234 33.1638 10.8226 33.1638 10.6156V10.5973C33.1638 10.3457 33.1107 10.1246 33.0043 9.93383C32.9019 9.74309 32.7522 9.59497 32.5553 9.48946C32.3584 9.37989 32.124 9.3251 31.8522 9.3251C31.5765 9.3251 31.3323 9.38597 31.1196 9.50771C30.9069 9.6254 30.7415 9.78976 30.6234 10.0008C30.5051 10.2078 30.446 10.4512 30.446 10.7312V10.7617H28.7977L28.7917 10.7312C28.7917 10.1712 28.9237 9.67816 29.1876 9.25205C29.4555 8.82595 29.8238 8.49318 30.2925 8.25374C30.7652 8.01431 31.3126 7.8946 31.9349 7.8946C32.5218 7.8946 33.0377 8.00214 33.4829 8.21722C33.9319 8.43231 34.2825 8.73058 34.5345 9.11205C34.7906 9.49351 34.9185 9.93788 34.9185 10.4452V10.4634C34.9185 10.7962 34.8555 11.1229 34.7295 11.4435C34.6035 11.76 34.3908 12.1029 34.0914 12.4722C33.7921 12.8415 33.3825 13.2737 32.8625 13.7688L31.285 15.2867V15.4246H35.0426V16.9037H28.8922Z" fill="#939393"/>
<path d="M18.1298 17.2409C18.5854 17.2409 18.9548 17.6214 18.9548 18.0909V19.8604C18.9548 20.3299 18.5854 20.7104 18.1298 20.7104C17.6742 20.7104 17.3048 20.3299 17.3048 19.8604V18.0909C17.3048 17.6214 17.6742 17.2409 18.1298 17.2409Z" fill="#939393"/>
<path fill-rule="evenodd" clip-rule="evenodd" d="M22.0297 11.1472C21.4868 9.4192 19.9749 8.12122 18.1383 8.12041C15.8166 8.11128 14.0194 10.1599 14.0098 12.5753V13.6866C12.6957 14.274 11.8045 15.686 11.8045 17.2681V20.683C11.8045 22.7657 13.349 24.5537 15.3693 24.5537H20.8899C22.9101 24.5537 24.4545 22.7657 24.4545 20.683V17.2681C24.4545 15.1854 22.9101 13.3975 20.8899 13.3975H15.6598V12.5807C15.6668 10.995 16.8249 9.81468 18.133 9.82041H18.1366C19.1776 9.82041 20.1113 10.5609 20.4599 11.6706C20.6001 12.1173 21.0653 12.3622 21.4988 12.2177C21.9323 12.0731 22.1699 11.5939 22.0297 11.1472ZM13.4545 17.2681C13.4545 16.014 14.3637 15.0975 15.3693 15.0975H20.8899C21.8955 15.0975 22.8045 16.014 22.8045 17.2681V20.683C22.8045 21.937 21.8955 22.8537 20.8899 22.8537H15.3693C14.3637 22.8537 13.4545 21.937 13.4545 20.683V17.2681Z" fill="#939393"/>
<path d="M38.4368 16.7881C38.8937 17.0153 39.4254 17.129 40.032 17.129C40.6701 17.129 41.2313 16.9991 41.7159 16.7393C42.2043 16.4756 42.5843 16.1103 42.8561 15.6436C43.1318 15.1769 43.2697 14.6352 43.2697 14.0183V14.0062C43.2697 13.4462 43.1516 12.9511 42.9152 12.521C42.6828 12.0867 42.3598 11.7458 41.9462 11.4982C41.5367 11.2507 41.066 11.1269 40.5342 11.1269C40.2624 11.1269 40.0083 11.1655 39.7721 11.2426C39.5396 11.3197 39.3328 11.4292 39.1517 11.5713C38.9744 11.7133 38.8287 11.8838 38.7145 12.0826H38.6081L38.8208 9.58076H42.7616V8.11982H37.4324L37.0366 13.3184H38.5668C38.6141 13.225 38.6712 13.1377 38.7381 13.0566C38.809 12.9713 38.8838 12.8963 38.9626 12.8314C39.1083 12.7056 39.2718 12.6122 39.4529 12.5513C39.6342 12.4864 39.8311 12.454 40.0439 12.454C40.3471 12.454 40.615 12.521 40.8473 12.6548C41.0797 12.7888 41.2609 12.9754 41.3909 13.2149C41.5248 13.4543 41.5918 13.7302 41.5918 14.0427V14.0549C41.5918 14.3674 41.5248 14.6454 41.3909 14.8888C41.2609 15.1283 41.0797 15.317 40.8473 15.4549C40.615 15.593 40.3452 15.6619 40.0379 15.6619C39.7701 15.6619 39.5298 15.6112 39.3171 15.5098C39.1045 15.4043 38.9291 15.2642 38.7913 15.0898C38.6573 14.9112 38.5688 14.7143 38.5254 14.4993L38.5135 14.4567H36.8948L36.9006 14.5419C36.9361 15.0288 37.0857 15.4692 37.3496 15.8628C37.6175 16.2523 37.9799 16.5608 38.4368 16.7881Z" fill="#939393"/>
<path fill-rule="evenodd" clip-rule="evenodd" d="M48.3536 17.129C47.8573 17.129 47.3965 17.0376 46.9711 16.855C46.5456 16.6724 46.1715 16.3945 45.8485 16.021C45.5294 15.6477 45.2793 15.1769 45.0981 14.6088C44.9209 14.0406 44.8323 13.369 44.8323 12.5939V12.5818C44.8323 11.6037 44.974 10.7657 45.2576 10.0677C45.5452 9.36567 45.9528 8.82798 46.4807 8.45462C47.0085 8.08127 47.6347 7.8946 48.3595 7.8946C48.9109 7.8946 49.4072 7.99808 49.8484 8.20505C50.2895 8.41201 50.6518 8.69405 50.9355 9.05117C51.223 9.40829 51.41 9.81614 51.4967 10.2747L51.5086 10.3356H49.7656L49.742 10.2808C49.675 10.0941 49.5766 9.93383 49.4465 9.7999C49.3206 9.66193 49.1669 9.55439 48.9857 9.47727C48.8046 9.40017 48.5978 9.36162 48.3653 9.36162C47.9557 9.36162 47.619 9.48743 47.3551 9.73903C47.0912 9.99064 46.8922 10.3315 46.7584 10.7617C46.6283 11.1918 46.5516 11.6728 46.5279 12.2044C46.5239 12.2653 46.5221 12.3261 46.5221 12.387V12.4052H46.6402C46.7466 12.178 46.8962 11.967 47.0892 11.7722C47.2822 11.5773 47.5245 11.4212 47.8159 11.3034C48.1074 11.1817 48.4481 11.1208 48.838 11.1208C49.3934 11.1208 49.8798 11.2446 50.2974 11.4921C50.7148 11.7397 51.0399 12.0805 51.2722 12.5148C51.5046 12.949 51.6208 13.4442 51.6208 14.0001V14.0123C51.6208 14.6088 51.481 15.1425 51.2014 15.6133C50.9256 16.0839 50.5416 16.4553 50.0492 16.7272C49.5608 16.995 48.9956 17.129 48.3536 17.129ZM46.9946 14.8706C46.8568 14.6231 46.7879 14.3451 46.7879 14.0367V14.0306C46.7879 13.7261 46.8568 13.4583 46.9946 13.227C47.1364 12.9916 47.3255 12.807 47.5619 12.673C47.7982 12.5392 48.0621 12.4722 48.3536 12.4722C48.6529 12.4722 48.9168 12.5412 49.1452 12.6792C49.3777 12.8171 49.5608 13.0058 49.6947 13.2453C49.8287 13.4807 49.8956 13.7525 49.8956 14.0609V14.0732C49.8956 14.3735 49.8247 14.6454 49.6829 14.8888C49.5451 15.1283 49.358 15.319 49.1216 15.461C48.8893 15.6031 48.6292 15.6741 48.3418 15.6741C48.0543 15.6741 47.7922 15.6031 47.556 15.461C47.3197 15.315 47.1326 15.1181 46.9946 14.8706Z" fill="#939393"/>
<path fill-rule="evenodd" clip-rule="evenodd" d="M60.4888 8.11982C61.0442 8.11982 61.5168 8.20911 61.9068 8.38766C62.3006 8.56216 62.602 8.81378 62.8106 9.14248C63.0234 9.46713 63.1298 9.85469 63.1298 10.3051V10.3173C63.1298 10.6257 63.0608 10.9139 62.923 11.1817C62.7891 11.4495 62.6058 11.6728 62.3735 11.8513C62.1411 12.0299 61.8792 12.1415 61.5877 12.1861V12.2956C61.9658 12.3241 62.3006 12.4337 62.5921 12.6244C62.8875 12.8152 63.1179 13.0627 63.2833 13.367C63.4527 13.6714 63.5374 14.0103 63.5374 14.3836V14.3957C63.5374 14.9071 63.4173 15.3515 63.1771 15.7289C62.9407 16.1022 62.602 16.3924 62.1608 16.5994C61.7236 16.8022 61.1997 16.9037 60.5892 16.9037H56.7606V8.11982H60.4888ZM60.1342 15.534H58.545V12.9836H60.0929C60.4434 12.9836 60.7389 13.0322 60.9791 13.1297C61.2233 13.2229 61.4065 13.363 61.5286 13.5497C61.6547 13.7363 61.7177 13.9656 61.7177 14.2375V14.2496C61.7177 14.6677 61.5818 14.9862 61.31 15.2054C61.0422 15.4246 60.6502 15.534 60.1342 15.534ZM58.545 11.7722H59.8862C60.3667 11.7722 60.7349 11.6728 60.9909 11.4739C61.247 11.275 61.375 10.995 61.375 10.6339V10.6217C61.375 10.2646 61.2568 9.98658 61.0205 9.78773C60.7881 9.58482 60.4592 9.48337 60.0338 9.48337H58.545V11.7722Z" fill="#939393"/>
<path d="M65.2713 16.9037V8.11982H67.0557V16.9037H65.2713Z" fill="#939393"/>
<path d="M71.3124 9.63554V16.9037H73.0967V9.63554H75.6549V8.11982H68.7541V9.63554H71.3124Z" fill="#939393"/>
<path d="M30.1855 24.9533C29.8353 24.9533 29.5303 24.8969 29.2703 24.784C29.0103 24.6688 28.8052 24.5095 28.6548 24.3058C28.5044 24.1022 28.4185 23.8664 28.3969 23.5986L28.3938 23.5555H29.106L29.1092 23.5919C29.1243 23.7359 29.179 23.8609 29.2735 23.9672C29.3702 24.0734 29.4991 24.1565 29.6603 24.2162C29.8235 24.2759 30.0093 24.3058 30.2178 24.3058C30.4132 24.3058 30.5873 24.2738 30.7398 24.2095C30.8924 24.1454 31.0116 24.0568 31.0976 23.944C31.1857 23.831 31.2297 23.7015 31.2297 23.5555V23.5521C31.2297 23.3683 31.162 23.2157 31.0267 23.094C30.8913 22.9721 30.67 22.8769 30.3628 22.8084L29.8536 22.6988C29.3831 22.5947 29.0404 22.4298 28.8256 22.2041C28.6108 21.976 28.5033 21.685 28.5033 21.3308V21.3275C28.5055 21.0508 28.5775 20.8073 28.7192 20.597C28.8632 20.3868 29.0619 20.223 29.3154 20.1056C29.569 19.9883 29.8601 19.9297 30.1887 19.9297C30.5175 19.9297 30.8043 19.9883 31.0493 20.1056C31.2963 20.2207 31.4907 20.3779 31.6325 20.5771C31.7765 20.7763 31.857 21.001 31.8743 21.2512L31.8775 21.2943H31.1717L31.1652 21.2512C31.146 21.1205 31.0933 21.0043 31.0074 20.9025C30.9235 20.8007 30.8108 20.721 30.669 20.6634C30.5293 20.6037 30.366 20.5749 30.179 20.5771C29.9987 20.5771 29.8375 20.6058 29.6957 20.6634C29.5539 20.7187 29.4411 20.7995 29.3574 20.9058C29.2757 21.012 29.2348 21.1404 29.2348 21.2909V21.2943C29.2348 21.4714 29.3004 21.6197 29.4315 21.7392C29.5647 21.8566 29.7805 21.9484 30.0792 22.0148L30.5884 22.131C30.9128 22.2018 31.176 22.296 31.3779 22.4133C31.5799 22.5306 31.7271 22.6755 31.8195 22.8483C31.914 23.0186 31.9613 23.2223 31.9613 23.4591V23.4624C31.9613 23.768 31.8882 24.0325 31.742 24.256C31.5982 24.4774 31.393 24.6489 31.1266 24.7706C30.8602 24.8924 30.5465 24.9533 30.1855 24.9533Z" fill="#939393"/>
<path d="M33.5694 24.784C33.8293 24.8969 34.1343 24.9533 34.4846 24.9533C34.8455 24.9533 35.1592 24.8924 35.4256 24.7706C35.692 24.6489 35.8972 24.4774 36.0411 24.256C36.1873 24.0325 36.2603 23.768 36.2603 23.4624V23.4591C36.2603 23.2223 36.213 23.0186 36.1185 22.8483C36.0261 22.6755 35.8789 22.5306 35.677 22.4133C35.475 22.296 35.2118 22.2018 34.8874 22.131L34.3782 22.0148C34.0795 21.9484 33.8637 21.8566 33.7305 21.7392C33.5994 21.6197 33.5339 21.4714 33.5339 21.2943V21.2909C33.5339 21.1404 33.5748 21.012 33.6564 20.9058C33.7402 20.7995 33.8529 20.7187 33.9947 20.6634C34.1365 20.6058 34.2977 20.5771 34.4782 20.5771C34.6651 20.5749 34.8283 20.6037 34.968 20.6634C35.1098 20.721 35.2226 20.8007 35.3064 20.9025C35.3923 21.0043 35.445 21.1205 35.4642 21.2512L35.4707 21.2943H36.1765L36.1733 21.2512C36.156 21.001 36.0755 20.7763 35.9315 20.5771C35.7897 20.3779 35.5953 20.2207 35.3483 20.1056C35.1033 19.9883 34.8165 19.9297 34.4878 19.9297C34.1591 19.9297 33.868 19.9883 33.6145 20.1056C33.3609 20.223 33.1623 20.3868 33.0183 20.597C32.8765 20.8073 32.8045 21.0508 32.8023 21.3275V21.3308C32.8023 21.685 32.9098 21.976 33.1246 22.2041C33.3395 22.4298 33.6821 22.5947 34.1527 22.6988L34.6618 22.8084C34.969 22.8769 35.1903 22.9721 35.3257 23.094C35.461 23.2157 35.5287 23.3683 35.5287 23.5521V23.5555C35.5287 23.7015 35.4847 23.831 35.3966 23.944C35.3107 24.0568 35.1914 24.1454 35.0389 24.2095C34.8863 24.2738 34.7123 24.3058 34.5168 24.3058C34.3085 24.3058 34.1226 24.2759 33.9593 24.2162C33.7982 24.1565 33.6692 24.0734 33.5726 23.9672C33.4781 23.8609 33.4233 23.7359 33.4082 23.5919L33.405 23.5555H32.6928L32.696 23.5986C32.7175 23.8664 32.8034 24.1022 32.9538 24.3058C33.1042 24.5095 33.3093 24.6688 33.5694 24.784Z" fill="#939393"/>
<path d="M37.2109 24.837V20.0458H37.9329V24.1929H40.1146V24.837H37.2109Z" fill="#939393"/>
<path d="M42.8247 20.0458V24.837H45.7767V24.1929H43.5467V22.7054H45.6575V22.0879H43.5467V20.69H45.7767V20.0458H42.8247Z" fill="#939393"/>
<path d="M46.7403 24.837V21.2312H47.4397V21.7757H47.4945C47.5804 21.5831 47.7071 21.4326 47.8748 21.3241C48.0423 21.2156 48.2539 21.1615 48.5096 21.1615C48.9027 21.1615 49.2036 21.2776 49.4119 21.5101C49.6204 21.7425 49.7245 22.0735 49.7245 22.5029V24.837H49.022V22.6722C49.022 22.3712 48.9608 22.1476 48.8383 22.0015C48.718 21.8531 48.5289 21.779 48.2711 21.779C48.1014 21.779 47.9542 21.8178 47.8296 21.8952C47.705 21.9704 47.6083 22.0789 47.5396 22.2206C47.4729 22.3601 47.4397 22.5272 47.4397 22.7219V24.837H46.7403Z" fill="#939393"/>
<path d="M51.2907 24.6809C51.5378 24.8315 51.831 24.9068 52.1705 24.9068C52.4606 24.9068 52.7087 24.8569 52.915 24.7573C53.1233 24.6555 53.2899 24.516 53.4145 24.339C53.5391 24.1618 53.6218 23.956 53.6626 23.7214L53.669 23.6915L52.9988 23.6948L52.9923 23.7115C52.9364 23.9063 52.8397 24.0534 52.7022 24.153C52.5669 24.2526 52.3897 24.3025 52.1705 24.3025C51.9793 24.3025 51.8139 24.2515 51.6743 24.1497C51.5346 24.0457 51.4272 23.8985 51.352 23.7081C51.2768 23.5178 51.2392 23.2897 51.2392 23.0241V23.0175C51.2392 22.7586 51.2758 22.5349 51.3488 22.3468C51.4239 22.1587 51.5314 22.0147 51.671 21.9151C51.8107 21.8134 51.9772 21.7624 52.1705 21.7624C52.4026 21.7624 52.5884 21.8222 52.7281 21.9418C52.8677 22.0591 52.9569 22.2063 52.9955 22.3833L52.9988 22.39H53.6723L53.669 22.3733C53.6368 22.1409 53.5574 21.9339 53.4306 21.7525C53.306 21.5687 53.1373 21.4248 52.9247 21.3208C52.7141 21.2146 52.4617 21.1615 52.1673 21.1615C51.8278 21.1615 51.5346 21.2367 51.2875 21.3872C51.0426 21.5377 50.8536 21.7514 50.7204 22.028C50.5893 22.3048 50.5238 22.6346 50.5238 23.0175V23.0241C50.5238 23.4137 50.5903 23.7491 50.7236 24.0302C50.8568 24.3113 51.0459 24.5283 51.2907 24.6809Z" fill="#939393"/>
<path d="M54.4618 24.837V21.2312H55.1611V21.7757H55.2159C55.2782 21.5831 55.3877 21.4337 55.5446 21.3275C55.7035 21.2212 55.8991 21.168 56.1311 21.168C56.1892 21.168 56.2461 21.1714 56.3019 21.178C56.3578 21.1847 56.4029 21.1924 56.4372 21.2012V21.8654C56.375 21.852 56.3127 21.8421 56.2503 21.8354C56.1902 21.8288 56.1268 21.8255 56.0603 21.8255C55.882 21.8255 55.7251 21.861 55.5897 21.9318C55.4565 22.0026 55.3512 22.1022 55.2739 22.2305C55.1988 22.3568 55.1611 22.5073 55.1611 22.6822V24.837H54.4618Z" fill="#939393"/>
<path d="M57.359 26.0987C57.4085 26.1032 57.4546 26.1054 57.4976 26.1054C57.7361 26.1054 57.938 26.0711 58.1035 26.0025C58.2689 25.9338 58.4118 25.8165 58.532 25.6505C58.6524 25.4867 58.7619 25.261 58.8608 24.9732L60.1628 21.2312H59.4248L58.5515 24.1099H58.493L57.6168 21.2312H56.8595L58.1292 24.8404L58.0777 25.0263C58.0261 25.2078 57.9498 25.3373 57.8488 25.4148C57.7478 25.4944 57.6157 25.5343 57.4525 25.5343C57.4138 25.5343 57.373 25.5332 57.3301 25.5309C57.2892 25.5288 57.2516 25.5255 57.2172 25.5211V26.0888C57.2623 26.0932 57.3096 26.0966 57.359 26.0987Z" fill="#939393"/>
<path fill-rule="evenodd" clip-rule="evenodd" d="M60.8749 26.039V21.2312H61.5743V21.799H61.6291C61.6956 21.6661 61.7815 21.5532 61.8868 21.4602C61.9943 21.3673 62.1167 21.2953 62.2542 21.2444C62.3917 21.1935 62.5421 21.168 62.7054 21.168C62.9998 21.168 63.2554 21.2455 63.4723 21.4005C63.6894 21.5532 63.857 21.769 63.9751 22.0479C64.0955 22.3246 64.1555 22.6522 64.1555 23.0308V23.0374C64.1555 23.4182 64.0965 23.7479 63.9783 24.0269C63.8602 24.3035 63.6926 24.5183 63.4756 24.6711C63.2586 24.8216 63.0019 24.8968 62.7054 24.8968C62.5443 24.8968 62.3939 24.8713 62.2542 24.8204C62.1146 24.7673 61.9911 24.6943 61.8836 24.6012C61.7762 24.5083 61.6913 24.3966 61.6291 24.2659H61.5743V26.039H60.8749ZM62.5055 24.2793C62.7011 24.2793 62.8687 24.2294 63.0084 24.1298C63.1479 24.0301 63.2543 23.8873 63.3274 23.7015C63.4026 23.5155 63.4402 23.2942 63.4402 23.0374V23.0308C63.4402 22.7718 63.4026 22.5493 63.3274 22.3634C63.2543 22.1775 63.1479 22.0347 63.0084 21.9351C62.8687 21.8354 62.7011 21.7857 62.5055 21.7857C62.3123 21.7857 62.1446 21.8366 62.0028 21.9384C61.8611 22.038 61.7526 22.1808 61.6774 22.3668C61.6022 22.5505 61.5646 22.7718 61.5646 23.0308V23.0374C61.5646 23.292 61.6022 23.5122 61.6774 23.6982C61.7526 23.8841 61.8611 24.028 62.0028 24.1298C62.1446 24.2294 62.3123 24.2793 62.5055 24.2793Z" fill="#939393"/>
<path d="M65.4833 24.6345C65.6551 24.785 65.9323 24.8603 66.3147 24.8603C66.3834 24.8603 66.4501 24.8558 66.5146 24.847C66.579 24.8404 66.6392 24.8326 66.695 24.8238V24.2461C66.6456 24.2505 66.6016 24.2538 66.5629 24.256C66.5263 24.2582 66.4823 24.2594 66.4307 24.2594C66.2567 24.2594 66.1321 24.2173 66.057 24.1331C65.9817 24.0469 65.9441 23.9063 65.9441 23.7115V21.799H66.695V21.2312H65.9441V20.3215H65.2287V21.2312H64.6809V21.799H65.2287V23.8874C65.2287 24.2327 65.3136 24.4818 65.4833 24.6345Z" fill="#939393"/>
<path d="M67.5233 24.837V21.2312H68.2257V24.837H67.5233Z" fill="#939393"/>
<path d="M67.8777 20.587C67.7575 20.587 67.6543 20.5428 67.5684 20.4543C67.4825 20.3657 67.4395 20.2595 67.4395 20.1355C67.4395 20.0115 67.4825 19.9064 67.5684 19.8201C67.6543 19.7316 67.7575 19.6872 67.8777 19.6872C67.998 19.6872 68.1012 19.7316 68.1871 19.8201C68.273 19.9064 68.316 20.0115 68.316 20.1355C68.316 20.2595 68.273 20.3657 68.1871 20.4543C68.1012 20.5428 67.998 20.587 67.8777 20.587Z" fill="#939393"/>
<path fill-rule="evenodd" clip-rule="evenodd" d="M69.8371 24.6809C70.0863 24.8315 70.3817 24.9068 70.7233 24.9068C71.067 24.9068 71.3614 24.8315 71.6064 24.6809C71.8534 24.5304 72.0435 24.3158 72.1767 24.0368C72.3121 23.7557 72.3798 23.4226 72.3798 23.0374V23.0308C72.3798 22.6434 72.3121 22.3102 72.1767 22.0314C72.0435 21.7502 71.8534 21.5356 71.6064 21.3872C71.3593 21.2367 71.0649 21.1615 70.7233 21.1615C70.3839 21.1615 70.0896 21.2367 69.8403 21.3872C69.5932 21.5377 69.4021 21.7525 69.2667 22.0314C69.1334 22.3102 69.0669 22.6434 69.0669 23.0308V23.0374C69.0669 23.4226 69.1334 23.7557 69.2667 24.0368C69.3999 24.3158 69.5901 24.5304 69.8371 24.6809ZM71.2325 24.153C71.0929 24.2526 70.9231 24.3025 70.7233 24.3025C70.5235 24.3025 70.3538 24.2526 70.2142 24.153C70.0745 24.0512 69.967 23.9063 69.8919 23.718C69.8189 23.5299 69.7823 23.303 69.7823 23.0374V23.0308C69.7823 22.763 69.8189 22.5349 69.8919 22.3468C69.967 22.1587 70.0745 22.0147 70.2142 21.9151C70.3538 21.8134 70.5235 21.7624 70.7233 21.7624C70.9231 21.7624 71.0929 21.8134 71.2325 21.9151C71.3722 22.0147 71.4785 22.1587 71.5516 22.3468C71.6246 22.5349 71.6611 22.763 71.6611 23.0308V23.0374C71.6611 23.303 71.6246 23.5299 71.5516 23.718C71.4785 23.9063 71.3722 24.0512 71.2325 24.153Z" fill="#939393"/>
<path d="M73.2113 24.837V21.2312H73.9106V21.7757H73.9654C74.0513 21.5831 74.1781 21.4326 74.3456 21.3241C74.5133 21.2156 74.7248 21.1615 74.9805 21.1615C75.3737 21.1615 75.6744 21.2776 75.8829 21.5101C76.0912 21.7425 76.1955 22.0735 76.1955 22.5029V24.837H75.4929V22.6722C75.4929 22.3712 75.4316 22.1476 75.3092 22.0015C75.1889 21.8531 74.9998 21.779 74.7421 21.779C74.5723 21.779 74.4251 21.8178 74.3005 21.8952C74.1759 21.9704 74.0792 22.0789 74.0105 22.2206C73.9439 22.3601 73.9106 22.5272 73.9106 22.7219V24.837H73.2113Z" fill="#939393"/>
<path fill-rule="evenodd" clip-rule="evenodd" d="M6.6 0C2.95492 0 0 3.04446 0 6.8V27.2C0 30.9555 2.95492 34 6.6 34H81.4C85.0451 34 88 30.9555 88 27.2V6.8C88 3.04446 85.0451 0 81.4 0H6.6ZM1.1 6.8C1.1 3.67039 3.56243 1.13333 6.6 1.13333H81.4C84.4376 1.13333 86.9 3.67039 86.9 6.8V27.2C86.9 30.3296 84.4376 32.8667 81.4 32.8667H6.6C3.56243 32.8667 1.1 30.3296 1.1 27.2V6.8Z" fill="#939393"/>
</svg>
